<svg width="307" height="294" viewBox="0 0 307 294" fill="none" xmlns="http://www.w3.org/2000/svg">
<path d="M5.63908 65.155L4.66682 28.3959C4.66682 22.5612 4.01865 17.9582 2.72231 14.5869C1.42597 11.2157 0.777804 9.40048 0.777804 9.14115C0.777804 6.28859 5.12054 4.08434 13.806 2.52841C22.6211 0.972462 29.2973 0.19449 33.8345 0.19449C38.5013 0.19449 41.0291 1.29662 41.418 3.50087C49.585 39.9358 56.4556 65.2199 62.0298 79.353C62.678 80.909 63.3262 81.6869 63.9743 81.6869C64.7522 81.6869 65.4003 81.1034 65.9189 79.9365C74.6043 55.4304 82.2527 31.1837 88.8641 7.19623C89.3826 5.64028 90.6789 4.47333 92.7531 3.69536C94.8272 2.78773 98.3922 1.94493 103.448 1.16695C108.633 0.388984 113.754 0 118.81 0C123.865 0 126.393 1.0373 126.393 3.11189C126.393 3.24155 126.199 4.27884 125.81 6.22377C125.421 8.03903 125.032 10.3081 124.643 13.031C124.254 15.7539 123.8 19.0603 123.282 22.9501C122.115 31.8968 121.337 42.2049 120.948 53.8745C120.689 65.4144 120.56 77.0191 120.56 88.6887L120.948 109.11C120.948 118.446 121.532 125.124 122.699 129.143C123.995 133.033 124.643 135.302 124.643 135.95C124.643 136.469 124.189 137.117 123.282 137.895C119.263 141.137 113.17 142.758 105.003 142.758C99.8181 142.758 96.9014 141.007 96.2532 137.506C95.8643 135.691 95.6698 132.839 95.6698 128.949C95.6698 124.929 96.0587 112.741 96.8365 92.384C97.6144 72.0271 98.0033 57.2457 98.0033 48.0397C98.0033 38.704 97.4847 34.0362 96.4476 34.0362C96.318 34.0362 96.2532 34.1011 96.2532 34.2307C96.2532 34.2307 96.0587 34.2955 95.6698 34.4252C95.2809 34.5549 94.2439 36.5646 92.5586 40.4545C91.003 44.3443 87.827 53.9393 83.0305 69.2394C78.2341 84.5395 73.8913 98.8671 70.0023 112.222C66.1133 125.448 63.9743 132.579 63.5854 133.616C62.1595 137.117 59.4372 138.868 55.4185 138.868C53.474 138.868 51.9184 138.155 50.7517 136.728C46.6034 117.538 39.2143 90.1149 28.5843 54.458L23.1397 36.7591C22.8804 36.1108 22.6211 35.7867 22.3619 35.7867C21.7137 35.7867 21.26 36.2405 21.0007 37.1481C20.4822 45.5761 20.2229 62.1728 20.2229 86.9382C20.2229 111.574 21.1303 127.133 22.9452 133.616C23.0748 133.876 23.1397 134.265 23.1397 134.783C23.1397 137.506 21.0007 139.516 16.7228 140.813C12.4449 141.98 8.55584 142.563 5.05572 142.563C1.68524 142.563 0 141.785 0 140.229C0 140.1 0.324085 139.062 0.972255 137.117C2.91676 130.505 4.14829 120.91 4.66682 108.332C5.31499 95.7552 5.63908 81.3628 5.63908 65.155Z" fill="#0066F6"/>
<path d="M170.594 194.687C170.594 196.243 169.816 197.021 168.261 197.021H168.066C163.788 197.021 158.927 195.53 153.483 192.548C148.168 189.566 145.51 186.13 145.51 182.24C145.51 178.35 147.973 171.543 152.899 161.818C157.825 152.223 160.288 145.805 160.288 142.563C160.288 139.062 158.603 132.774 155.233 123.697C150.955 111.898 147.519 102.303 144.927 94.9124C142.464 87.5217 139.741 81.0386 136.76 75.4632C133.908 69.758 131.834 66.3868 130.537 65.3495L128.593 63.9881C127.167 63.2101 126.454 62.3673 126.454 61.4597C126.454 59.6444 129.241 57.8292 134.815 56.0139C140.519 54.069 145.51 53.0965 149.788 53.0965C151.732 53.0965 153.353 54.6524 154.649 57.7643C156.983 63.8584 159.51 72.2864 162.233 83.0484C168.844 105.091 172.992 116.112 174.678 116.112C175.844 116.112 178.178 111.574 181.678 102.498C185.308 93.4213 187.123 86.0954 187.123 80.52C187.123 70.7953 184.271 65.0902 178.567 63.4046C177.27 63.1453 176.622 62.497 176.622 61.4597C176.622 59.1258 179.669 56.9215 185.761 54.8469C191.854 52.6427 197.364 51.5406 202.29 51.5406C206.568 51.5406 208.707 54.3283 208.707 59.9038C208.707 64.1826 207.799 69.1746 205.984 74.8797C204.169 80.5848 202.484 85.123 200.929 88.4942C199.373 91.7357 195.484 99.3858 189.261 111.444C183.169 123.373 178.113 133.876 174.094 142.952C169.687 153.844 167.483 164.93 167.483 176.21C167.483 182.175 168.002 186.648 169.039 189.63C170.076 192.613 170.594 194.298 170.594 194.687Z" fill="#0066F6"/>
<path d="M88.062 170.692C91.4324 166.413 94.8029 162.458 98.1734 158.828C101.674 155.067 104.525 152.733 106.729 151.826C108.933 150.918 113.405 150.464 120.146 150.464C126.887 150.464 130.258 151.307 130.258 152.993C130.258 153.641 129.545 154.354 128.119 155.132C126.693 155.91 124.748 157.142 122.285 158.828C119.822 160.513 114.637 165.116 106.729 172.637C98.9512 180.157 91.1083 188.974 83.2007 199.088C82.9414 199.347 82.8118 199.736 82.8118 200.255C82.8118 200.644 83.1359 200.903 83.784 201.032C84.5618 201.162 85.5989 201.357 86.8952 201.616C88.1916 201.875 90.525 202.913 93.8955 204.728C97.3956 206.413 100.507 208.618 103.229 211.341C105.951 213.934 108.544 218.018 111.007 223.594C113.6 229.039 115.091 234.226 115.48 239.153C115.868 243.951 116.257 248.294 116.646 252.184C117.035 256.074 118.007 261.649 119.563 268.91C121.248 276.171 123.193 280.515 125.397 281.941C126.045 282.46 126.369 283.108 126.369 283.886C126.369 285.961 123.517 287.906 117.813 289.721C112.109 291.407 106.989 292.25 102.451 292.25C98.0438 292.25 95.5159 290.434 94.8677 286.804C94.2196 282.914 93.7658 273.643 93.5066 258.991V251.212C93.5066 237.597 91.5621 227.743 87.673 221.649C84.3026 216.333 81.2562 213.35 78.5339 212.702C76.4597 212.054 75.3578 211.73 75.2282 211.73L73.0892 212.702C69.978 216.333 67.515 219.833 65.7001 223.205C63.8852 226.576 62.913 229.039 62.7833 230.595L62.3944 233.124C62.3944 251.406 63.1722 267.03 64.7278 279.997C64.9871 281.552 65.1167 282.46 65.1167 282.719C65.1167 285.572 62.0703 288.036 55.9776 290.11C50.0144 292.185 45.0883 293.222 41.1993 293.222C37.4399 293.222 35.5602 292.639 35.5602 291.472C35.5602 290.694 35.7547 289.721 36.1436 288.554C37.4399 285.702 38.3473 276.301 38.8659 260.353C39.514 244.275 39.8381 229.688 39.8381 216.592C39.8381 203.366 39.5789 192.669 39.0603 184.501C38.2825 172.183 36.9862 164.792 35.1713 162.328C33.7453 160.513 33.0323 159.346 33.0323 158.828C33.0323 157.012 36.338 155.262 42.9493 153.576C49.6903 151.891 55.0701 151.048 59.0888 151.048C63.2371 151.048 65.3112 151.956 65.3112 153.771L65.1167 156.299C63.4315 170.303 62.5889 185.279 62.5889 201.227C62.5889 202.524 62.8482 203.172 63.3667 203.172C64.0149 203.172 64.7278 202.588 65.5057 201.421C66.2835 200.255 67.3853 198.634 68.8113 196.559C70.3669 194.485 73.0892 190.724 76.9782 185.279C80.9969 179.833 84.6915 174.97 88.062 170.692Z" fill="#0066F6"/>
<path d="M199.505 203.172C197.172 217.175 196.005 235.004 196.005 256.657C196.005 272.606 196.653 283.108 197.95 288.165L198.727 290.694C198.727 292.379 197.301 293.222 194.449 293.222C184.468 293.222 178.764 290.434 177.338 284.859C177.208 284.211 176.884 283.886 176.365 283.886C175.977 283.886 175.588 284.146 175.199 284.664C171.18 289.98 164.958 292.639 156.531 292.639C151.865 292.639 147.003 291.472 141.948 289.138C138.836 287.711 136.309 285.248 134.364 281.747C132.42 278.116 131.447 273.708 131.447 268.521L134.364 225.928C134.364 216.981 133.457 210.627 131.642 206.867C130.994 205.441 130.669 204.533 130.669 204.144C130.669 203.366 130.994 202.848 131.642 202.588C133.716 201.94 136.373 201.616 139.614 201.616C152.189 201.616 158.476 206.802 158.476 217.175C158.476 220.417 157.115 227.808 154.393 239.348C151.8 250.887 150.503 259.121 150.503 264.048C150.503 268.846 151.541 272.541 153.615 275.134C155.818 277.727 158.8 279.024 162.559 279.024C166.448 279.024 169.495 277.663 171.699 274.94C173.902 272.217 175.199 269.494 175.588 266.771L176.171 262.687C176.69 258.149 176.949 250.174 176.949 238.764C176.949 227.354 176.56 220.158 175.782 217.175C175.134 214.064 174.81 212.119 174.81 211.341C174.81 208.099 177.403 205.571 182.588 203.755C187.773 201.81 192.44 200.838 196.588 200.838C198.533 200.838 199.505 201.616 199.505 203.172Z" fill="#0066F6"/>
<path d="M268.213 237.597L268.991 244.404C268.991 246.868 266.658 248.1 261.991 248.1C252.527 248.1 247.796 244.534 247.796 237.403C247.796 235.717 248.249 233.383 249.157 230.401C250.064 227.419 250.518 224.825 250.518 222.621C250.518 220.417 249.87 218.537 248.574 216.981C247.277 215.295 245.398 214.452 242.935 214.452C240.471 214.452 238.332 215.36 236.518 217.175C234.832 218.861 233.795 220.611 233.406 222.427L232.629 225.15C231.851 229.169 231.462 235.912 231.462 245.377C231.462 254.712 231.592 262.103 231.851 267.549C232.11 272.865 232.369 276.56 232.629 278.635C232.888 280.58 233.018 281.747 233.018 282.136C233.018 285.378 231.008 287.971 226.99 289.916C222.971 291.99 218.952 293.028 214.934 293.028C210.915 293.028 208.906 292.185 208.906 290.499L209.878 284.47C211.693 273.189 212.6 258.473 212.6 240.32C212.6 222.167 211.952 209.849 210.656 203.366C210.656 201.81 212.017 201.032 214.739 201.032C221.739 201.032 226.406 203.431 228.74 208.229C228.869 208.747 229.064 209.007 229.323 209.007C229.712 209.007 230.619 208.423 232.045 207.256C236.323 203.755 241.379 202.005 247.212 202.005C250.842 202.005 254.472 202.718 258.102 204.144C265.491 207.127 269.185 213.35 269.185 222.816L268.213 237.597Z" fill="#0066F6"/>
<path d="M298.055 185.668L293.388 185.473C289.888 185.473 287.62 186.316 286.583 188.001C286.323 188.39 285.999 188.585 285.61 188.585C283.925 188.585 283.083 185.732 283.083 180.027C283.083 174.193 283.925 170.497 285.61 168.941C287.425 167.385 290.472 166.607 294.75 166.607C299.157 166.607 302.139 167.385 303.694 168.941C305.25 170.367 306.028 172.831 306.028 176.332C306.028 179.833 305.444 182.296 304.278 183.723C303.111 185.019 301.037 185.668 298.055 185.668ZM282.499 283.886L284.638 238.57C284.638 227.808 283.407 220.482 280.944 216.592C280.166 215.295 279.258 214.323 278.221 213.674C277.443 213.415 277.055 212.897 277.055 212.119C277.055 209.785 280.36 207.516 286.972 205.311C293.583 203.107 298.379 202.005 301.361 202.005C304.472 202.005 306.093 202.783 306.222 204.339C306.222 206.932 305.833 214.323 305.055 226.511C304.407 238.57 304.083 251.276 304.083 264.632C304.083 277.987 304.861 286.285 306.417 289.527C306.806 290.175 307 290.823 307 291.472C307 293.157 304.537 294 299.611 294C294.685 294 289.629 292.703 284.444 290.11C283.147 289.462 282.499 287.387 282.499 283.886Z" fill="#0066F6"/>
</svg>
